<?xml version="1.0" encoding="utf-8"?>
<svg width="100px" height="100px" viewBox="0 0 100 100" version="1.1" xmlns:xlink="http://www.w3.org/1999/xlink" xmlns="http://www.w3.org/2000/svg">
  <desc>Created with Lunacy</desc>
  <path d="M1.999 0L98.001 0Q98.0992 0 98.1969 0.00962573Q98.2947 0.0192515 98.391 0.0384102Q98.4873 0.057569 98.5813 0.0860763Q98.6752 0.114584 98.766 0.152165Q98.8567 0.189746 98.9433 0.236039Q99.0299 0.282333 99.1116 0.336892Q99.1933 0.391452 99.2692 0.453752Q99.3451 0.516052 99.4145 0.585494Q99.4839 0.654935 99.5462 0.730848Q99.6086 0.806761 99.6631 0.888415Q99.7177 0.970069 99.764 1.05668Q99.8102 1.14329 99.8478 1.23402Q99.8854 1.32474 99.9139 1.41872Q99.9424 1.5127 99.9616 1.60901Q99.9807 1.70533 99.9904 1.80306Q100 1.9008 100 1.999L100 98.001Q100 98.0992 99.9904 98.1969Q99.9807 98.2947 99.9616 98.391Q99.9424 98.4873 99.9139 98.5813Q99.8854 98.6752 99.8478 98.766Q99.8102 98.8567 99.764 98.9433Q99.7177 99.0299 99.6631 99.1116Q99.6085 99.1933 99.5462 99.2692Q99.4839 99.3451 99.4145 99.4145Q99.3451 99.4839 99.2692 99.5462Q99.1933 99.6086 99.1116 99.6631Q99.0299 99.7177 98.9433 99.764Q98.8567 99.8102 98.766 99.8478Q98.6752 99.8854 98.5813 99.9139Q98.4873 99.9424 98.391 99.9616Q98.2947 99.9807 98.1969 99.9904Q98.0992 100 98.001 100L1.999 100Q1.9008 100 1.80306 99.9904Q1.70533 99.9807 1.60901 99.9616Q1.5127 99.9424 1.41872 99.9139Q1.32474 99.8854 1.23402 99.8478Q1.14329 99.8102 1.05668 99.764Q0.970069 99.7177 0.888415 99.6631Q0.806761 99.6085 0.730848 99.5462Q0.654935 99.4839 0.585494 99.4145Q0.516052 99.3451 0.453752 99.2692Q0.391452 99.1933 0.336892 99.1116Q0.282333 99.0299 0.236039 98.9433Q0.189746 98.8567 0.152165 98.766Q0.114584 98.6752 0.0860763 98.5813Q0.057569 98.4873 0.0384102 98.391Q0.0192515 98.2947 0.00962573 98.1969Q0 98.0992 0 98.001L0 1.999Q0 1.9008 0.00962573 1.80306Q0.0192515 1.70533 0.0384102 1.60901Q0.057569 1.5127 0.0860763 1.41872Q0.114584 1.32474 0.152165 1.23402Q0.189746 1.14329 0.236039 1.05668Q0.282333 0.970069 0.336892 0.888415Q0.391452 0.806761 0.453752 0.730848Q0.516052 0.654935 0.585494 0.585494Q0.654935 0.516052 0.730848 0.453752Q0.806761 0.391452 0.888415 0.336892Q0.970069 0.282333 1.05668 0.236039Q1.14329 0.189746 1.23402 0.152165Q1.32474 0.114584 1.41872 0.0860763Q1.5127 0.057569 1.60901 0.0384102Q1.70533 0.0192515 1.80306 0.00962573Q1.9008 0 1.999 0L1.999 0Z" id="Rectangle" fill="#E22A1A" stroke="none" />
</svg>