<?xml version="1.0" encoding="utf-8"?>
<svg width="480px" height="408px" viewBox="0 0 480 408" version="1.1" xmlns:xlink="http://www.w3.org/1999/xlink" xmlns="http://www.w3.org/2000/svg">
  <desc>Created with Lunacy</desc>
  <g id="logo">
    <path d="M0 0L396.473 0L396.473 408L0 408L0 0Z" id="Rectangle" fill="#E22A18" stroke="none" />
    <g id="R." fill="#FFFFFF" transform="translate(115.8236 30)">
      <path d="M73.9688 65.2344L5.0625 65.2344L5.0625 179.141L22.3594 179.141L22.3594 184.906L5.0625 184.906L5.0625 265.625Q5.0625 265.977 5.23828 266.152Q5.41406 266.328 5.76563 266.328L44.5781 266.328L44.5781 237.641L38.5313 237.641L38.5313 187.859L66.6563 187.859L66.6563 217.25L82.8281 217.25L82.8281 262.672L124.734 262.672L124.734 234.266L104.766 234.266L104.766 226.813L117.984 226.813L117.984 178.719L95.625 178.719L95.625 171.266L110.25 171.266Q123.047 155.938 123.047 126.688L123.047 118.25Q123.047 102.078 118.688 89.5625Q108.563 65.2344 73.9688 65.2344ZM44.5781 154.813L44.5781 98L61.1719 98Q74.6719 98 79.7344 100.953Q86.2031 105.172 86.2031 124.016Q86.2031 125.141 85.9219 133.859Q85.9219 134.422 85.2188 134.422L64.9688 134.422L64.9688 141.594L84.2344 141.594Q84.7969 141.594 85.9219 135.125L85.9219 134.422L99.4219 134.422L99.4219 141.594L84.5156 141.594Q82.5469 148.484 79.0313 150.734Q75.6563 154.813 54.1406 154.813L44.5781 154.813ZM41.9063 189.547L40.2188 189.547L42.1875 192.922Q42.1875 193.484 39.9375 197L41.625 197Q42.3281 196.859 43.3125 194.609Q45 197 45.2813 197L46.9688 197L46.9688 196.719Q44.5781 193.203 44.5781 192.922L46.6875 189.969L46.6875 189.547L44.5781 189.547Q43.875 191.656 43.3125 191.656Q43.3125 190.25 41.9063 189.547ZM46.6875 199.672L40.5 199.672L40.5 201.078L43.875 201.078L40.2188 205.859L40.2188 207.125L46.6875 207.125L46.6875 205.438L42.8906 205.438L46.6875 200.797L46.6875 199.672ZM178.172 234.547L150.328 234.547L150.328 265.766Q150.328 266.328 150.891 266.328L178.172 266.328Q178.734 266.328 178.734 265.766L178.734 235.109Q178.734 234.688 178.172 234.547Z" />
    </g>
  </g>
</svg>